#!OML:ASF H:\Dans Jumps\Project 1\Capture day 1\Session 1\subject.ASF
:FULLY-SPECIFIED
:DEGREES
304
root 0.546098 21.7129 -5.15798 10.7406 0.681868 -1.92634
lowerback 8.09488 0.416724 -0.603697
upperback 4.996 0.519782 2.13049
thorax 0.602683 0.217163 2.49767
lowerneck -12.4284 -0.62534 -1.51034
upperneck 22.6036 -0.564967 0.154111
head 9.14823 -0.37187 0.243279
rclavicle 5.96354e-016 -5.96354e-015
rhumerus -9.38655 -14.1496 -85.463
rradius 28.0991
rwrist 35.0854
rhand -23.3734 -24.2058
rfingers 7.12502
rthumb 3.08253 -54.1633
lclavicle 5.96354e-016 -5.96354e-015
lhumerus -10.8233 8.78506 83.9404
lradius 17.0864
lwrist 7.20778
lhand -25.7489 -11.7711
lfingers 7.12502
lthumb 0.788312 18.2072
rfemur -25.4062 -5.18755 21.2673
rtibia 51.3008
rfoot 12.6326 -2.82212
rtoes 17.3258
lfemur -24.1658 7.54191 -16.3667
ltibia 58.911
lfoot 19.8896 -1.58407
ltoes 2.55945
305
root 0.541154 21.8055 -4.9644 10.5035 0.626141 -1.91828
lowerback 8.46485 0.477697 -0.678591
upperback 5.09326 0.595526 2.12677
thorax 0.495995 0.253472 2.52885
lowerneck -12.6214 -0.665171 -1.47265
upperneck 22.8592 -0.632699 0.186465
head 9.27388 -0.397318 0.239671
rclavicle 1.2921e-015 -1.47101e-014
rhumerus -9.72721 -14.7657 -85.2809
rradius 27.6303
rwrist 35.5279
rhand -23.3077 -24.2748
rfingers 7.12502
rthumb 3.14591 -54.2313
lclavicle 1.2921e-015 -1.47101e-014
lhumerus -11.0821 9.09658 83.8805
lradius 16.5036
lwrist 6.33147
lhand -25.4422 -11.5838
lfingers 7.12502
lthumb 1.0845 18.3932
rfemur -25.9935 -5.33153 21.3967
rtibia 50.7496
rfoot 12.5677 -2.80777
rtoes 17.2156
lfemur -24.9786 7.9339 -16.5409
ltibia 59.2642
lfoot 19.5919 -1.97738
ltoes 2.69312
306
root 0.5364 21.8839 -4.7702 10.363 0.554383 -1.85583
lowerback 8.74496 0.542593 -0.801921
upperback 5.15666 0.67248 2.10557
thorax 0.403344 0.289782 2.56888
lowerneck -12.7682 -0.702004 -1.45122
upperneck 23.0943 -0.693616 0.218041
head 9.38422 -0.420792 0.239345
rclavicle -2.18663e-015 2.38542e-015
rhumerus -10.1017 -15.3959 -85.0739
rradius 27.1737
rwrist 35.9726
rhand -23.2598 -24.3199
rfingers 7.12502
rthumb 3.1922 -54.2757
lclavicle -2.18663e-015 2.38542e-015
lhumerus -11.3655 9.45451 83.8034
lradius 15.9445
lwrist 5.45169
lhand -25.1351 -11.4052
lfingers 7.12502
lthumb 1.38107 18.57
rfemur -26.6642 -5.45429 21.4667
rtibia 50.0831
rfoot 12.5767 -2.73349
rtoes 17.1797
lfemur -25.8109 8.31031 -16.7968
ltibia 59.2585
lfoot 19.3378 -2.28742
ltoes 2.84702
307
root 0.532073 21.9475 -4.57518 10.2898 0.483338 -1.74467
lowerback 8.95635 0.603812 -0.962551
upperback 5.19922 0.741174 2.07069
thorax 0.326902 0.321466 2.61635
lowerneck -12.8917 -0.732685 -1.43446
upperneck 23.314 -0.742564 0.237266
head 9.48508 -0.440271 0.236945
rclavicle 8.84592e-015 7.55382e-015
rhumerus -10.5015 -16.0282 -84.8426
rradius 26.7237
rwrist 36.4179
rhand -23.2043 -24.3442
rfingers 7.12502
rthumb 3.24582 -54.2993
lclavicle 8.84592e-015 7.55382e-015
lhumerus -11.6733 9.8635 83.7081
lradius 15.4139
lwrist 4.59204
lhand -24.8677 -11.2679
lfingers 7.12502
lthumb 1.63931 18.7056
rfemur -27.3888 -5.5749 21.4827
rtibia 49.3264
rfoot 12.6687 -2.61419
rtoes 17.2007
lfemur -26.6309 8.64226 -17.1204
ltibia 58.9089
lfoot 19.0754 -2.53542
ltoes 2.98971
308
root 0.528105 21.9966 -4.37916 10.2559 0.42555 -1.605
lowerback 9.12326 0.657366 -1.14045
upperback 5.23449 0.7978 2.03073
thorax 0.267686 0.346807 2.66932
lowerneck -13.0322 -0.752551 -1.40546
upperneck 23.5308 -0.771399 0.224956
head 9.58818 -0.452716 0.223834
rclavicle -2.5842e-015 -2.38542e-015
rhumerus -10.9232 -16.6498 -84.586
rradius 26.2889
rwrist 36.8785
rhand -23.1509 -24.3768
rfingers 7.12502
rthumb 3.29742 -54.3311
lclavicle -2.5842e-015 -2.38542e-015
lhumerus -12.0101 10.3225 83.5992
lradius 14.9277
lwrist 3.7744
lhand -24.6997 -11.1947
lfingers 7.12502
lthumb 1.80163 18.7774
rfemur -28.1373 -5.70004 21.4671
rtibia 48.4935
rfoot 12.8454 -2.48086
rtoes 17.2528
lfemur -27.4127 8.9155 -17.4794
ltibia 58.2394
lfoot 18.7665 -2.74201
ltoes 3.13036
309
root 0.524571 22.0314 -4.18182 10.2318 0.399079 -1.44025
lowerback 9.26746 0.697675 -1.32613
upperback 5.27719 0.835693 1.98745
thorax 0.229507 0.362454 2.72497
lowerneck -13.1679 -0.767036 -1.39312
upperneck 23.7135 -0.789698 0.215578
head 9.67868 -0.461302 0.215766
rclavicle 2.5842e-015 7.95139e-015
rhumerus -11.3585 -17.2671 -84.307
rradius 25.8658
rwrist 37.3697
rhand -23.0756 -24.435
rfingers 7.12502
rthumb 3.37012 -54.3881
lclavicle 2.5842e-015 7.95139e-015
lhumerus -12.3667 10.8267 83.4774
lradius 14.4855
lwrist 3.01484
lhand -24.6481 -11.173
lfingers 7.12502
lthumb 1.85146 18.7987
rfemur -28.8701 -5.85364 21.4216
rtibia 47.5915
rfoot 13.0974 -2.33603
rtoes 17.2604
lfemur -28.1269 9.11228 -17.8601
ltibia 57.2782
lfoot 18.3661 -2.914
ltoes 3.24528
310
root 0.521226 22.0523 -3.98327 10.1981 0.407629 -1.28043
lowerback 9.41483 0.725064 -1.4915
upperback 5.32939 0.857502 1.94884
thorax 0.200564 0.370251 2.77542
lowerneck -13.2932 -0.777038 -1.38851
upperneck 23.8608 -0.799301 0.203159
head 9.75484 -0.466806 0.209009
rclavicle 1.80894e-014 2.70347e-014
rhumerus -11.8212 -17.8528 -84.0036
rradius 25.4674
rwrist 37.8705
rhand -22.9907 -24.5133
rfingers 7.12502
rthumb 3.45209 -54.4651
lclavicle 1.80894e-014 2.70347e-014
lhumerus -12.75 11.3501 83.3425
lradius 14.0917
lwrist 2.35049
lhand -24.7092 -11.2263
lfingers 7.12502
lthumb 1.79242 18.7459
rfemur -29.5625 -6.02462 21.3779
rtibia 46.6198
rfoot 13.4181 -2.20889
rtoes 17.2583
lfemur -28.7615 9.2384 -18.2218
ltibia 56.0616
lfoot 17.8656 -3.06584
ltoes 3.32192
311
root 0.517816 22.0597 -3.78367 10.1416 0.462003 -1.13889
lowerback 9.57906 0.737321 -1.62059
upperback 5.39891 0.861544 1.91623
thorax 0.181873 0.36955 2.8132
lowerneck -13.4138 -0.784635 -1.39035
upperneck 23.9673 -0.8065 0.200391
head 9.81588 -0.470598 0.207009
rclavicle 3.18055e-015 -8.34896e-015
rhumerus -12.3029 -18.4078 -83.6819
rradius 25.0864
rwrist 38.3825
rhand -22.9025 -24.5976
rfingers 7.12502
rthumb 3.53728 -54.548
lclavicle 3.18055e-015 -8.34896e-015
lhumerus -13.1336 11.8839 83.1936
lradius 13.7253
lwrist 1.79328
lhand -24.8366 -11.3261
lfingers 7.12502
lthumb 1.66936 18.6471
rfemur -30.1934 -6.21332 21.3482
rtibia 45.5758
rfoot 13.7805 -2.10973
rtoes 17.2215
lfemur -29.3106 9.29586 -18.5434
ltibia 54.6256
lfoot 17.2844 -3.21002
ltoes 3.36988
312
root 0.514055 22.054 -3.58283 10.0624 0.553084 -1.0291
lowerback 9.76082 0.740031 -1.70638
upperback 5.48126 0.855952 1.8924
thorax 0.168044 0.364613 2.83652
lowerneck -13.5022 -0.794619 -1.40936
upperneck 24.0214 -0.820353 0.225046
head 9.85239 -0.475792 0.216805
rclavicle -3.97569e-015 -5.1684e-015
rhumerus -12.826 -18.909 -83.3381
rradius 24.7375
rwrist 38.8666
rhand -22.8132 -24.6568
rfingers 7.12502
rthumb 3.62349 -54.6058
lclavicle -3.97569e-015 -5.1684e-015
lhumerus -13.5212 12.409 83.0313
lradius 13.3802
lwrist 1.34301
lhand -24.9863 -11.4477
lfingers 7.12502
lthumb 1.52476 18.5266
rfemur -30.7577 -6.39613 21.3426
rtibia 44.4538
rfoot 14.166 -2.04134
rtoes 17.1486
lfemur -29.781 9.29633 -18.8085
ltibia 53.006
lfoot 16.661 -3.35112
ltoes 3.39942
313
root 0.509823 22.0356 -3.38064 9.95824 0.674197 -0.956985
lowerback 9.96248 0.736637 -1.74504
upperback 5.57443 0.845761 1.87634
thorax 0.155478 0.358128 2.84169
lowerneck -13.595 -0.801357 -1.41655
upperneck 24.063 -0.83359 0.254127
head 9.88526 -0.479076 0.226218
rclavicle 8.94531e-015 8.74653e-015
rhumerus -13.3866 -19.3538 -82.9751
rradius 24.412
rwrist 39.3133
rhand -22.7254 -24.7008
rfingers 7.12502
rthumb 3.70826 -54.6483
lclavicle 8.94531e-015 8.74653e-015
lhumerus -13.9092 12.9454 82.8508
lradius 13.0377
lwrist 0.940045
lhand -25.11 -11.5778
lfingers 7.12502
lthumb 1.40532 18.3973
rfemur -31.2473 -6.55699 21.3616
rtibia 43.2496
rfoot 14.5362 -2.00075
rtoes 17.0031
lfemur -30.1766 9.24976 -19.0104
ltibia 51.234
lfoot 16.0282 -3.51019
ltoes 3.40011
314
root 0.505066 22.0051 -3.17692 9.83305 0.816923 -0.913036
lowerback 10.1777 0.730585 -1.75051
upperback 5.67436 0.834644 1.86526
thorax 0.143056 0.351757 2.83337
lowerneck -13.6742 -0.810611 -1.42766
upperneck 24.0863 -0.856014 0.308222
head 9.90924 -0.484038 0.243961
rclavicle 7.7526e-015 1.39149e-014
rhumerus -13.9974 -19.7312 -82.5908
rradius 24.1186
rwrist 39.7052
rhand -22.621 -24.7302
rfingers 7.12502
rthumb 3.80914 -54.6759
lclavicle 7.7526e-015 1.39149e-014
lhumerus -14.3017 13.498 82.6506
lradius 12.689
lwrist 0.530278
lhand -25.1898 -11.6972
lfingers 7.12502
lthumb 1.32821 18.2784
rfemur -31.6621 -6.68484 21.39
rtibia 41.9605
rfoot 14.8649 -1.98149
rtoes 16.7665
lfemur -30.5058 9.16154 -19.1598
ltibia 49.3376
lfoot 15.4113 -3.69039
ltoes 3.39102
315
root 0.499734 21.963 -2.97133 9.69283 0.965827 -0.890593
lowerback 10.3942 0.726632 -1.73591
upperback 5.77713 0.828031 1.85565
thorax 0.13304 0.348008 2.81485
lowerneck -13.7636 -0.817906 -1.41982
upperneck 24.1219 -0.881083 0.365546
head 9.93954 -0.488106 0.259269
rclavicle -2.5842e-015 -1.31198e-014
rhumerus -14.6521 -20.0518 -82.1889
rradius 23.8416
rwrist 40.021
rhand -22.4882 -24.7515
rfingers 7.12502
rthumb 3.93736 -54.6949
lclavicle -2.5842e-015 -1.31198e-014
lhumerus -14.7095 14.0666 82.4255
lradius 12.3332
lwrist 0.0620506
lhand -25.2161 -11.7883
lfingers 7.12502
lthumb 1.30289 18.1875
rfemur -32.0064 -6.76672 21.4164
rtibia 40.5863
rfoot 15.143 -1.97194
rtoes 16.4473
lfemur -30.7778 9.04807 -19.2668
ltibia 47.3388
lfoot 14.8207 -3.89802
ltoes 3.33634
316
root 0.493432 21.9096 -2.76432 9.54522 1.10823 -0.888397
lowerback 10.6106 0.728845 -1.71431
upperback 5.87348 0.830294 1.8482
thorax 0.116069 0.348986 2.79368
lowerneck -13.8575 -0.823619 -1.38531
upperneck 24.1776 -0.908452 0.414451
head 9.97774 -0.491747 0.266818
rclavicle -1.98785e-015 -1.59028e-015
rhumerus -15.3496 -20.3362 -81.7689
rradius 23.5734
rwrist 40.2646
rhand -22.3644 -24.758
rfingers 7.12502
rthumb 4.05692 -54.6991
lclavicle -1.98785e-015 -1.59028e-015
lhumerus -15.1383 14.6716 82.1691
lradius 11.9616
lwrist -0.512717
lhand -25.1763 -11.8162
lfingers 7.12502
lthumb 1.3413 18.1593
rfemur -32.293 -6.78071 21.4381
rtibia 39.1315
rfoot 15.3688 -1.98543
rtoes 16.0712
lfemur -31.0107 8.92799 -19.3343
ltibia 45.2591
lfoot 14.2991 -4.13647
ltoes 3.29383
317
root 0.486696 21.8458 -2.55477 9.3917 1.23513 -0.886735
lowerback 10.8107 0.73896 -1.70268
upperback 5.96466 0.842285 1.83568
thorax 0.102079 0.354707 2.77193
lowerneck -13.9457 -0.830604 -1.34034
upperneck 24.2468 -0.942326 0.47033
head 10.0198 -0.496577 0.274247
rclavicle -1.39149e-015 -1.51076e-014
rhumerus -16.0781 -20.6152 -81.3344
rradius 23.3044
rwrist 40.4502
rhand -22.2341 -24.7722
rfingers 7.12502
rthumb 4.18267 -54.7109
lclavicle -1.39149e-015 -1.51076e-014
lhumerus -15.5907 15.3059 81.8805
lradius 11.5737
lwrist -1.20958
lhand -25.1182 -11.777
lfingers 7.12502
lthumb 1.39743 18.1981
rfemur -32.5196 -6.74849 21.4336
rtibia 37.6045
rfoot 15.5453 -2.00274
rtoes 15.6505
lfemur -31.2004 8.81743 -19.3899
ltibia 43.112
lfoot 13.8568 -4.39168
ltoes 3.18074
